<svg xmlns="http://www.w3.org/2000/svg" xmlns:xlink="http://www.w3.org/1999/xlink" width="80" zoomAndPan="magnify" viewBox="0 0 75 74.999997" height="80" preserveAspectRatio="xMidYMid meet" version="1.0"><defs><clipPath id="bd93c32a48"><path d="M 4.453125 31 L 12 31 L 12 40 L 4.453125 40 Z M 4.453125 31 " clip-rule="nonzero"/></clipPath><clipPath id="7f9a864605"><path d="M 49 26 L 70.453125 26 L 70.453125 37 L 49 37 Z M 49 26 " clip-rule="nonzero"/></clipPath></defs><path fill="#48a0e8" d="M 20.585938 49.582031 C 21.648438 48.820312 23.140625 49.066406 23.902344 50.128906 L 31.226562 60.371094 C 32.9375 62.765625 35.46875 64.066406 38.410156 64.066406 L 38.570312 64.066406 C 41.511719 64.066406 44.042969 62.765625 45.753906 60.371094 L 53.078125 50.128906 C 53.839844 49.066406 55.332031 48.820312 56.394531 49.582031 C 57.457031 50.34375 57.703125 51.835938 56.941406 52.898438 L 46.695312 67.226562 C 45.652344 68.6875 45.15625 70.226562 45.15625 72.023438 L 45.15625 74.972656 L 31.824219 74.972656 L 31.824219 72.023438 C 31.824219 70.226562 31.332031 68.6875 30.285156 67.226562 L 20.039062 52.898438 C 19.277344 51.835938 19.523438 50.34375 20.585938 49.582031 Z M 20.585938 49.582031 " fill-opacity="1" fill-rule="evenodd"/><path fill="#60b7fe" d="M 20.585938 49.582031 C 21.648438 48.820312 23.140625 49.066406 23.902344 50.128906 L 31.226562 60.371094 C 32.9375 62.765625 35.46875 64.066406 38.410156 64.066406 L 38.570312 64.066406 C 41.511719 64.066406 44.042969 62.765625 45.753906 60.371094 L 53.078125 50.128906 C 53.839844 49.066406 55.332031 48.820312 56.394531 49.582031 C 56.664062 49.773438 56.882812 50.015625 57.042969 50.285156 C 57.011719 50.335938 56.976562 50.390625 56.941406 50.4375 L 46.695312 64.765625 C 44.222656 68.222656 43.527344 69.070312 43.527344 73.453125 L 43.527344 74.972656 L 31.824219 74.972656 L 31.824219 72.023438 C 31.824219 68.789062 30.117188 67.105469 30.03125 66.871094 C 29.902344 65.289062 29.671875 63.90625 29.265625 63.339844 L 19.941406 50.28125 C 20.101562 50.011719 20.316406 49.773438 20.585938 49.582031 Z M 20.585938 49.582031 " fill-opacity="1" fill-rule="evenodd"/><path fill="#f0b16e" d="M 41.847656 52.945312 C 42.070312 53.167969 42.265625 53.40625 42.441406 53.667969 C 42.613281 53.925781 42.757812 54.199219 42.878906 54.488281 C 42.996094 54.777344 43.089844 55.074219 43.148438 55.382812 C 43.210938 55.6875 43.238281 55.996094 43.238281 56.308594 C 43.238281 56.621094 43.210938 56.929688 43.148438 57.238281 C 43.089844 57.542969 42.996094 57.839844 42.878906 58.128906 C 42.757812 58.417969 42.613281 58.691406 42.441406 58.953125 C 42.265625 59.210938 42.070312 59.453125 41.847656 59.671875 C 41.628906 59.894531 41.386719 60.09375 41.128906 60.265625 C 40.871094 60.4375 40.597656 60.585938 40.308594 60.703125 C 40.019531 60.824219 39.722656 60.914062 39.417969 60.976562 C 39.109375 61.035156 38.800781 61.066406 38.488281 61.066406 C 38.179688 61.066406 37.867188 61.035156 37.5625 60.976562 C 37.257812 60.914062 36.960938 60.824219 36.671875 60.703125 C 36.382812 60.585938 36.109375 60.4375 35.851562 60.265625 C 35.589844 60.09375 35.351562 59.894531 35.128906 59.671875 C 34.910156 59.453125 34.714844 59.210938 34.539062 58.953125 C 34.367188 58.691406 34.21875 58.417969 34.101562 58.128906 C 33.980469 57.84375 33.890625 57.542969 33.832031 57.238281 C 33.769531 56.933594 33.738281 56.621094 33.738281 56.308594 C 33.738281 55.996094 33.769531 55.6875 33.832031 55.382812 C 33.890625 55.074219 33.980469 54.777344 34.101562 54.488281 C 34.21875 54.199219 34.367188 53.925781 34.539062 53.667969 C 34.714844 53.40625 34.910156 53.167969 35.128906 52.945312 C 35.351562 52.726562 35.589844 52.527344 35.851562 52.355469 C 36.109375 52.179688 36.382812 52.035156 36.671875 51.914062 C 36.960938 51.796875 37.257812 51.703125 37.5625 51.644531 C 37.867188 51.582031 38.175781 51.550781 38.488281 51.550781 C 38.800781 51.550781 39.109375 51.582031 39.417969 51.644531 C 39.722656 51.703125 40.019531 51.796875 40.308594 51.914062 C 40.59375 52.035156 40.871094 52.179688 41.128906 52.355469 C 41.386719 52.527344 41.628906 52.726562 41.847656 52.945312 Z M 41.847656 52.945312 " fill-opacity="1" fill-rule="nonzero"/><path fill="#fcd4a9" d="M 37.46875 60.957031 C 35.335938 60.488281 33.738281 58.585938 33.738281 56.308594 C 33.738281 54.035156 35.335938 52.132812 37.46875 51.664062 C 39.601562 52.132812 41.195312 54.035156 41.195312 56.308594 C 41.195312 58.585938 39.601562 60.488281 37.46875 60.957031 Z M 37.46875 60.957031 " fill-opacity="1" fill-rule="evenodd"/><path fill="#c89d8d" d="M 39.636719 12.425781 C 39.605469 13.066406 39.058594 13.558594 38.417969 13.527344 C 37.777344 13.496094 37.28125 12.949219 37.316406 12.304688 C 37.394531 10.75 37.152344 8.289062 36.46875 6.28125 C 36.027344 4.992188 35.433594 3.941406 34.679688 3.625 C 34.085938 3.378906 33.804688 2.695312 34.050781 2.101562 C 34.296875 1.507812 34.980469 1.226562 35.570312 1.472656 C 38.96875 2.890625 39.789062 9.496094 39.636719 12.425781 Z M 39.636719 12.425781 " fill-opacity="1" fill-rule="evenodd"/><path fill="#e33f65" d="M 46.820312 10.253906 C 49.808594 13.132812 46.402344 21.472656 43.621094 25.53125 C 43.144531 26.230469 42.433594 26.628906 41.589844 26.671875 C 40.847656 26.710938 40.179688 26.46875 39.65625 25.96875 C 39 25.347656 37.972656 25.351562 37.320312 25.976562 C 36.796875 26.480469 36.128906 26.726562 35.378906 26.6875 C 34.535156 26.644531 33.828125 26.25 33.347656 25.550781 C 30.515625 21.433594 27.203125 13.09375 30.152344 10.253906 C 32.890625 7.621094 36.089844 8.667969 38.484375 10.976562 C 40.882812 8.667969 44.082031 7.621094 46.820312 10.253906 Z M 46.820312 10.253906 " fill-opacity="1" fill-rule="evenodd"/><path fill="#fa6e85" d="M 32.542969 24.285156 C 29.949219 19.914062 27.480469 12.828125 30.152344 10.253906 C 32.890625 7.621094 36.089844 8.667969 38.488281 10.976562 C 40.242188 9.285156 42.425781 8.273438 44.546875 8.886719 C 44.628906 8.960938 44.710938 9.039062 44.792969 9.117188 C 47.605469 11.820312 44.398438 19.660156 41.789062 23.472656 C 40.933594 24.722656 39.152344 24.925781 38.058594 23.886719 C 37.445312 23.300781 36.480469 23.304688 35.867188 23.890625 C 34.949219 24.773438 33.78125 24.648438 32.542969 24.285156 Z M 32.542969 24.285156 " fill-opacity="1" fill-rule="evenodd"/><path fill="#19cfba" d="M 43.855469 0.566406 C 43.867188 2 43.085938 3.503906 41.675781 4.46875 C 40.265625 5.433594 38.582031 5.613281 37.253906 5.082031 C 37.242188 3.648438 38.019531 2.144531 39.433594 1.179688 C 40.84375 0.214844 42.523438 0.03125 43.855469 0.566406 Z M 43.855469 0.566406 " fill-opacity="1" fill-rule="evenodd"/><path fill="#14b5a2" d="M 43.855469 0.566406 C 43.882812 3.757812 40.210938 6.265625 37.253906 5.082031 Z M 43.855469 0.566406 " fill-opacity="1" fill-rule="evenodd"/><path fill="#685e68" d="M 12.160156 34.863281 L 22.148438 34.695312 L 22.1875 37.019531 L 12.195312 37.1875 Z M 12.160156 34.863281 " fill-opacity="1" fill-rule="evenodd"/><path fill="#c89d8d" d="M 28.203125 31.949219 L 22.890625 31.949219 L 22.890625 39.933594 L 28.203125 39.933594 C 29.128906 39.933594 29.890625 39.171875 29.890625 38.242188 L 29.890625 33.636719 C 29.890625 32.710938 29.128906 31.949219 28.203125 31.949219 Z M 28.203125 31.949219 " fill-opacity="1" fill-rule="evenodd"/><path fill="#a37767" d="M 22.890625 31.949219 L 27.160156 31.949219 L 27.160156 39.933594 L 22.890625 39.933594 Z M 22.890625 31.949219 " fill-opacity="1" fill-rule="evenodd"/><path fill="#ada0ad" d="M 24.042969 27.667969 L 21.542969 27.667969 C 20.894531 27.667969 20.363281 28.199219 20.363281 28.847656 L 20.363281 43.03125 C 20.363281 43.683594 20.894531 44.214844 21.542969 44.214844 L 24.042969 44.214844 C 24.691406 44.214844 25.222656 43.683594 25.222656 43.03125 L 25.222656 28.847656 C 25.222656 28.199219 24.691406 27.667969 24.042969 27.667969 Z M 24.042969 27.667969 " fill-opacity="1" fill-rule="evenodd"/><g clip-path="url(#bd93c32a48)"><path fill="#c89d8d" d="M 6.144531 31.949219 L 11.457031 31.949219 L 11.457031 39.933594 L 6.144531 39.933594 C 5.21875 39.933594 4.457031 39.171875 4.457031 38.242188 L 4.457031 33.636719 C 4.457031 32.710938 5.21875 31.949219 6.144531 31.949219 Z M 6.144531 31.949219 " fill-opacity="1" fill-rule="evenodd"/></g><path fill="#a37767" d="M 7.003906 31.949219 L 11.457031 31.949219 L 11.457031 39.933594 L 7.003906 39.933594 Z M 7.003906 31.949219 " fill-opacity="1" fill-rule="evenodd"/><path fill="#ada0ad" d="M 10.304688 27.667969 L 12.804688 27.667969 C 13.453125 27.667969 13.984375 28.199219 13.984375 28.847656 L 13.984375 43.03125 C 13.984375 43.683594 13.453125 44.214844 12.804688 44.214844 L 10.304688 44.214844 C 9.65625 44.214844 9.125 43.683594 9.125 43.03125 L 9.125 28.847656 C 9.125 28.199219 9.65625 27.667969 10.304688 27.667969 Z M 10.304688 27.667969 " fill-opacity="1" fill-rule="evenodd"/><g clip-path="url(#7f9a864605)"><path fill="#60b7fe" d="M 51.109375 26.269531 L 68.949219 26.269531 C 69.785156 26.269531 70.464844 26.953125 70.464844 27.789062 L 70.464844 34.679688 C 70.464844 35.511719 69.785156 36.195312 68.949219 36.195312 L 51.109375 36.195312 C 50.273438 36.195312 49.59375 35.511719 49.59375 34.679688 L 49.59375 27.789062 C 49.59375 26.953125 50.273438 26.269531 51.109375 26.269531 Z M 51.109375 26.269531 " fill-opacity="1" fill-rule="evenodd"/></g><path fill="#48a0e8" d="M 64.621094 36.195312 L 59.410156 36.195312 C 59.285156 35.957031 59.117188 35.710938 58.894531 35.464844 C 56.128906 32.355469 58.777344 28.636719 62.015625 28.636719 C 62.699219 28.636719 61.328125 28.636719 62.015625 28.636719 C 65.25 28.636719 67.898438 32.355469 65.132812 35.464844 C 64.910156 35.710938 64.742188 35.957031 64.621094 36.195312 Z M 64.621094 36.195312 " fill-opacity="1" fill-rule="evenodd"/><path fill="#f0b16e" d="M 59.011719 46.035156 L 50.332031 46.035156 L 50.332031 44.050781 C 50.332031 41.816406 52.027344 39.074219 56.632812 38.835938 C 57.683594 38.78125 58.234375 37.394531 56.910156 35.90625 C 54.144531 32.800781 56.792969 29.082031 60.03125 29.082031 C 60.714844 29.082031 59.34375 29.082031 60.03125 29.082031 C 63.265625 29.082031 65.914062 32.800781 63.148438 35.90625 C 61.824219 37.394531 62.375 38.78125 63.429688 38.835938 C 68.03125 39.074219 69.726562 41.816406 69.726562 44.050781 L 69.726562 46.035156 Z M 59.011719 46.035156 " fill-opacity="1" fill-rule="evenodd"/><path fill="#fcd4a9" d="M 59.011719 46.035156 L 50.332031 46.035156 L 50.332031 44.050781 C 50.332031 41.816406 52.027344 39.074219 56.632812 38.835938 C 57.683594 38.78125 58.234375 37.394531 56.910156 35.90625 C 54.332031 33.011719 56.457031 29.585938 59.378906 29.132812 C 61.953125 30.238281 63.691406 34.253906 61.328125 36.910156 C 60 38.398438 60.554688 39.785156 61.605469 39.839844 C 66.207031 40.082031 67.90625 42.820312 67.90625 45.054688 L 67.90625 46.035156 Z M 59.011719 46.035156 " fill-opacity="1" fill-rule="evenodd"/><path fill="#19cfba" d="M 18.554688 24.246094 C 18.207031 24.785156 17.488281 24.9375 16.949219 24.585938 C 16.410156 24.238281 16.257812 23.515625 16.605469 22.976562 C 18.714844 19.734375 21.558594 16.953125 24.855469 14.933594 C 25.402344 14.597656 26.117188 14.773438 26.453125 15.320312 C 26.785156 15.871094 26.613281 16.585938 26.066406 16.921875 C 23.0625 18.761719 20.476562 21.292969 18.554688 24.246094 Z M 50.914062 16.921875 C 50.367188 16.585938 50.195312 15.871094 50.527344 15.320312 C 50.863281 14.773438 51.578125 14.597656 52.125 14.933594 C 55.421875 16.953125 58.265625 19.734375 60.375 22.976562 C 60.722656 23.515625 60.570312 24.238281 60.03125 24.585938 C 59.492188 24.9375 58.773438 24.785156 58.425781 24.246094 C 56.503906 21.285156 53.921875 18.769531 50.914062 16.921875 Z M 50.914062 16.921875 " fill-opacity="1" fill-rule="evenodd"/></svg>