<svg xmlns="http://www.w3.org/2000/svg" xmlns:xlink="http://www.w3.org/1999/xlink" width="40" zoomAndPan="magnify" viewBox="0 0 30 30.000001" height="40" preserveAspectRatio="xMidYMid meet" version="1.0"><defs><clipPath id="974f2e9bc3"><path d="M 0.507812 2.902344 L 24 2.902344 L 24 8 L 0.507812 8 Z M 0.507812 2.902344 " clip-rule="nonzero"/></clipPath><clipPath id="97955e1217"><path d="M 0.542969 12.125 L 29.457031 12.125 L 29.457031 16.898438 L 0.542969 16.898438 Z M 0.542969 12.125 " clip-rule="nonzero"/></clipPath><clipPath id="9c48dbc4af"><path d="M 0.542969 21.453125 L 18.550781 21.453125 L 18.550781 26.128906 L 0.542969 26.128906 Z M 0.542969 21.453125 " clip-rule="nonzero"/></clipPath></defs><g clip-path="url(#974f2e9bc3)"><path fill="#ffffff" d="M 21.066406 7.550781 L 2.867188 7.550781 C 1.585938 7.550781 0.542969 6.507812 0.542969 5.226562 C 0.542969 3.945312 1.585938 2.902344 2.867188 2.902344 L 21.066406 2.902344 C 22.351562 2.902344 23.390625 3.945312 23.390625 5.226562 C 23.390625 6.507812 22.351562 7.550781 21.066406 7.550781 " fill-opacity="1" fill-rule="nonzero"/></g><g clip-path="url(#97955e1217)"><path fill="#ffffff" d="M 27.132812 16.839844 L 2.867188 16.839844 C 1.585938 16.839844 0.542969 15.800781 0.542969 14.519531 C 0.542969 13.234375 1.585938 12.195312 2.867188 12.195312 L 27.132812 12.195312 C 28.417969 12.195312 29.457031 13.234375 29.457031 14.519531 C 29.457031 15.800781 28.417969 16.839844 27.132812 16.839844 " fill-opacity="1" fill-rule="nonzero"/></g><g clip-path="url(#9c48dbc4af)"><path fill="#ffffff" d="M 16.171875 26.132812 L 2.867188 26.132812 C 1.585938 26.132812 0.542969 25.09375 0.542969 23.808594 C 0.542969 22.527344 1.585938 21.488281 2.867188 21.488281 L 16.171875 21.488281 C 17.453125 21.488281 18.492188 22.527344 18.492188 23.808594 C 18.492188 25.09375 17.453125 26.132812 16.171875 26.132812 " fill-opacity="1" fill-rule="nonzero"/></g></svg>