<svg xmlns="http://www.w3.org/2000/svg" xmlns:xlink="http://www.w3.org/1999/xlink" width="40" zoomAndPan="magnify" viewBox="0 0 30 30.000001" height="40" preserveAspectRatio="xMidYMid meet" version="1.0"><defs><clipPath id="29a396906d"><path d="M 4.820312 0.0390625 L 25.144531 0.0390625 L 25.144531 28.785156 L 4.820312 28.785156 Z M 4.820312 0.0390625 " clip-rule="nonzero"/></clipPath></defs><g clip-path="url(#29a396906d)"><path fill="#ff3800" d="M 14.710938 28.757812 C 12.140625 28.632812 9.601562 27.667969 7.769531 25.941406 C 2.859375 21.320312 4.957031 14.105469 7.769531 8.933594 C 10.140625 4.574219 13.09375 1.703125 15.101562 0.0390625 C 15.105469 1.65625 15.304688 3.996094 16.257812 6.613281 C 16.835938 8.191406 17.542969 9.480469 18.1875 10.480469 C 18.390625 10.121094 18.644531 9.726562 18.960938 9.320312 C 19.488281 8.644531 20.039062 8.140625 20.503906 7.773438 C 20.367188 8.246094 20.242188 8.964844 20.503906 9.707031 C 20.714844 10.296875 21.070312 10.675781 21.277344 10.863281 C 23.777344 13.160156 25.261719 16.332031 25.136719 19.757812 C 25.109375 20.378906 24.902344 23.765625 22.046875 26.328125 C 20.074219 28.105469 17.375 28.882812 14.710938 28.757812 " fill-opacity="1" fill-rule="nonzero"/></g><path fill="#ff9927" d="M 14.703125 28.769531 C 12.84375 28.703125 11.011719 28.28125 9.695312 27.425781 C 7.9375 26.292969 7.445312 24.648438 7.640625 22.824219 C 7.835938 21.007812 8.714844 19.011719 9.726562 17.367188 C 11.425781 14.570312 13.714844 12.65625 14.085938 10.007812 C 14.980469 10.925781 15.132812 14.125 15.816406 15.6875 C 16.230469 16.628906 16.738281 17.410156 17.203125 18.023438 C 17.347656 17.820312 17.527344 17.597656 17.757812 17.371094 C 18.132812 17 18.527344 16.734375 18.859375 16.546875 C 18.761719 16.820312 18.675781 17.234375 18.863281 17.691406 C 19.015625 18.054688 19.269531 18.304688 19.417969 18.433594 C 21.210938 19.988281 22.273438 22.078125 22.195312 24.082031 C 22.175781 24.457031 22.039062 26.394531 19.996094 27.640625 C 18.582031 28.515625 16.628906 28.832031 14.703125 28.769531 " fill-opacity="1" fill-rule="nonzero"/><path fill="#ffdd36" d="M 14.761719 28.773438 C 13.449219 28.726562 12.136719 28.257812 11.265625 27.636719 C 10.105469 26.828125 9.722656 26.015625 9.878906 24.664062 C 10.035156 23.332031 10.855469 21.699219 11.6875 20.671875 C 12.390625 19.769531 13.089844 19.179688 13.605469 18.488281 C 14.117188 17.800781 14.445312 17.007812 14.34375 15.839844 C 14.742188 16.246094 15.058594 17.140625 15.253906 17.988281 C 15.457031 18.847656 15.539062 19.65625 15.703125 20.191406 C 15.898438 20.835938 16.128906 21.363281 16.363281 21.777344 C 16.46875 21.667969 16.59375 21.542969 16.75 21.414062 C 17.007812 21.199219 17.273438 21.027344 17.5 20.898438 C 17.421875 21.078125 17.335938 21.351562 17.429688 21.636719 C 17.503906 21.867188 17.664062 22.019531 17.761719 22.09375 C 18.898438 22.980469 20.035156 24.101562 19.953125 25.542969 C 19.980469 25.800781 19.683594 27.183594 18.296875 27.976562 C 17.367188 28.535156 16.132812 28.824219 14.761719 28.773438 " fill-opacity="1" fill-rule="nonzero"/><path fill="#fdfdc6" d="M 14.199219 28.726562 C 14.082031 28.699219 13.960938 28.660156 13.84375 28.613281 C 12.800781 28.199219 11.703125 27.5 11.429688 26.332031 C 11.375 26.105469 11.355469 25.867188 11.363281 25.632812 C 11.34375 26.144531 12.636719 26.019531 12.605469 25.734375 C 12.570312 25.402344 12.5625 24.964844 12.675781 24.460938 C 12.792969 23.929688 13.003906 23.5 13.191406 23.1875 C 13.410156 22.828125 13.789062 22.535156 14.125 22.300781 C 14.328125 22.15625 14.550781 22.042969 14.777344 21.941406 C 14.847656 21.910156 15.308594 21.792969 15.332031 21.734375 C 15.199219 22.085938 15.066406 22.566406 15.054688 23.136719 C 15.046875 23.644531 15.097656 24.355469 15.433594 24.765625 C 15.726562 25.125 16.078125 25.070312 16.503906 24.972656 C 17.039062 24.847656 17.378906 24.613281 17.539062 24.488281 C 17.488281 24.71875 17.402344 24.988281 17.265625 25.277344 C 17.179688 25.457031 17.082031 25.617188 16.988281 25.761719 C 17.050781 25.761719 17.136719 25.757812 17.230469 25.734375 C 17.378906 25.703125 17.480469 25.644531 17.539062 25.609375 C 17.5 26.003906 17.367188 26.652344 16.886719 27.367188 C 16.230469 28.332031 15.320312 28.992188 14.199219 28.726562 " fill-opacity="1" fill-rule="nonzero"/><path fill="#ff3800" d="M 22.382812 3.980469 C 22.355469 4.0625 22.328125 4.144531 22.296875 4.222656 C 22.269531 4.300781 22.238281 4.378906 22.210938 4.453125 C 22.082031 4.769531 21.933594 5.082031 21.859375 5.417969 C 21.761719 5.882812 21.769531 6.375 21.613281 6.832031 C 21.578125 6.945312 21.535156 7.0625 21.488281 7.171875 C 21.453125 7.25 21.414062 7.328125 21.371094 7.402344 C 21.332031 7.46875 21.285156 7.5625 21.222656 7.605469 C 21.199219 7.53125 21.207031 7.4375 21.203125 7.359375 L 21.1875 7.117188 C 21.175781 6.953125 21.167969 6.792969 21.167969 6.625 L 21.167969 6.566406 C 21.167969 6.546875 21.167969 6.527344 21.167969 6.507812 L 21.167969 6.453125 L 21.164062 6.394531 C 21.164062 6.316406 21.164062 6.238281 21.160156 6.15625 C 21.160156 5.996094 21.164062 5.828125 21.1875 5.652344 C 21.191406 5.605469 21.199219 5.5625 21.203125 5.519531 C 21.214844 5.472656 21.222656 5.429688 21.234375 5.382812 C 21.242188 5.339844 21.257812 5.289062 21.273438 5.242188 C 21.289062 5.195312 21.304688 5.148438 21.328125 5.105469 C 21.40625 4.933594 21.503906 4.785156 21.609375 4.652344 C 21.714844 4.519531 21.832031 4.390625 21.960938 4.277344 C 22.023438 4.222656 22.089844 4.167969 22.160156 4.117188 C 22.230469 4.066406 22.304688 4.019531 22.382812 3.980469 " fill-opacity="1" fill-rule="nonzero"/></svg>