<svg xmlns="http://www.w3.org/2000/svg" xmlns:xlink="http://www.w3.org/1999/xlink" width="80" zoomAndPan="magnify" viewBox="0 0 75 74.999997" height="80" preserveAspectRatio="xMidYMid meet" version="1.0"><defs><clipPath id="9635353ffe"><path d="M 5.859375 11 L 68.859375 11 L 68.859375 75 L 5.859375 75 Z M 5.859375 11 " clip-rule="nonzero"/></clipPath></defs><g clip-path="url(#9635353ffe)"><path fill="#ef5350" d="M 37.371094 11.703125 C 46.070312 11.703125 53.945312 15.246094 59.644531 20.972656 C 65.347656 26.695312 68.871094 34.609375 68.871094 43.34375 C 68.871094 52.082031 65.347656 59.996094 59.644531 65.71875 C 53.945312 71.445312 46.070312 74.988281 37.371094 74.988281 C 28.671875 74.988281 20.792969 71.445312 15.09375 65.71875 C 9.394531 59.996094 5.867188 52.085938 5.867188 43.347656 C 5.867188 34.609375 9.394531 26.699219 15.09375 20.972656 C 20.792969 15.246094 28.671875 11.703125 37.371094 11.703125 Z M 37.371094 11.703125 " fill-opacity="1" fill-rule="evenodd"/></g><path fill="#ffffff" d="M 56.554688 24.074219 C 51.644531 19.144531 44.863281 16.089844 37.371094 16.089844 C 29.875 16.089844 23.09375 19.144531 18.183594 24.074219 C 13.273438 29.007812 10.238281 35.820312 10.238281 43.347656 C 10.238281 50.871094 13.273438 57.6875 18.183594 62.617188 C 23.09375 67.554688 29.875 70.601562 37.371094 70.601562 C 44.863281 70.601562 51.644531 67.554688 56.554688 62.617188 C 61.46875 57.6875 64.503906 50.875 64.503906 43.347656 C 64.503906 35.820312 61.464844 29.007812 56.554688 24.074219 Z M 56.554688 24.074219 " fill-opacity="1" fill-rule="nonzero"/><path fill="#e6e6e6" d="M 56.554688 24.074219 C 51.652344 19.148438 44.878906 16.097656 37.394531 16.089844 C 37.386719 16.089844 37.378906 16.089844 37.371094 16.089844 C 37.367188 16.089844 37.355469 16.089844 37.347656 16.089844 C 30.902344 16.097656 24.984375 18.363281 20.332031 22.136719 C 24.597656 19.328125 29.703125 17.691406 35.1875 17.691406 C 42.679688 17.691406 49.464844 20.742188 54.375 25.675781 C 59.285156 30.605469 62.320312 37.421875 62.320312 44.949219 C 62.320312 52.472656 59.285156 59.289062 54.375 64.21875 C 53.695312 64.902344 52.976562 65.550781 52.230469 66.160156 C 53.792969 65.128906 55.242188 63.941406 56.5625 62.621094 C 61.472656 57.691406 64.507812 50.875 64.507812 43.347656 C 64.507812 35.820312 61.464844 29.007812 56.554688 24.074219 Z M 56.554688 24.074219 " fill-opacity="1" fill-rule="nonzero"/><path fill="#ef5350" d="M 38.460938 49.695312 L 38.460938 43.914062 C 38.460938 43.714844 38.507812 43.539062 38.609375 43.367188 L 45.292969 31.734375 C 45.59375 31.214844 45.410156 30.550781 44.894531 30.25 C 44.375 29.949219 43.710938 30.132812 43.414062 30.65625 L 36.535156 42.625 C 36.515625 42.652344 36.5 42.679688 36.476562 42.710938 C 36.347656 42.898438 36.277344 43.117188 36.277344 43.347656 L 36.277344 49.695312 C 36.277344 50.304688 36.765625 50.792969 37.367188 50.792969 C 37.972656 50.792969 38.460938 50.304688 38.460938 49.695312 Z M 38.460938 49.695312 " fill-opacity="1" fill-rule="evenodd"/><path fill="#b5d5f5" d="M 51.867188 20.304688 C 51.253906 19.914062 50.628906 19.550781 49.984375 19.210938 L 47.285156 23.910156 C 46.980469 24.433594 47.160156 25.101562 47.679688 25.402344 C 48.199219 25.707031 48.863281 25.527344 49.164062 25.007812 Z M 51.867188 20.304688 " fill-opacity="1" fill-rule="evenodd"/><path fill="#b5d5f5" d="M 61.398438 30.675781 C 61.058594 30.027344 60.695312 29.398438 60.308594 28.785156 L 55.625 31.5 C 55.109375 31.796875 54.933594 32.46875 55.234375 32.988281 C 55.53125 33.511719 56.199219 33.6875 56.71875 33.386719 Z M 61.398438 30.675781 " fill-opacity="1" fill-rule="evenodd"/><path fill="#b5d5f5" d="M 60.308594 57.90625 C 60.695312 57.292969 61.058594 56.667969 61.394531 56.023438 L 56.710938 53.304688 C 56.195312 53.007812 55.53125 53.191406 55.234375 53.710938 C 54.933594 54.230469 55.121094 54.894531 55.636719 55.195312 Z M 60.308594 57.90625 " fill-opacity="1" fill-rule="evenodd"/><path fill="#b5d5f5" d="M 49.988281 67.480469 C 50.628906 67.140625 51.257812 66.777344 51.871094 66.386719 L 49.164062 61.683594 C 48.863281 61.160156 48.199219 60.984375 47.679688 61.285156 C 47.160156 61.589844 46.984375 62.261719 47.285156 62.78125 Z M 49.988281 67.480469 " fill-opacity="1" fill-rule="evenodd"/><path fill="#b5d5f5" d="M 22.871094 66.386719 C 23.480469 66.777344 24.109375 67.140625 24.753906 67.480469 L 27.453125 62.78125 C 27.753906 62.257812 27.578125 61.589844 27.058594 61.285156 C 26.539062 60.984375 25.871094 61.160156 25.574219 61.683594 Z M 22.871094 66.386719 " fill-opacity="1" fill-rule="evenodd"/><path fill="#b5d5f5" d="M 13.34375 56.023438 C 13.679688 56.667969 14.042969 57.292969 14.429688 57.90625 L 19.105469 55.195312 C 19.621094 54.894531 19.804688 54.226562 19.507812 53.707031 C 19.210938 53.191406 18.546875 53.007812 18.03125 53.304688 Z M 13.34375 56.023438 " fill-opacity="1" fill-rule="evenodd"/><path fill="#b5d5f5" d="M 14.433594 28.785156 C 14.046875 29.398438 13.679688 30.027344 13.34375 30.675781 L 18.019531 33.386719 C 18.542969 33.6875 19.210938 33.511719 19.507812 32.988281 C 19.808594 32.46875 19.632812 31.796875 19.113281 31.5 Z M 14.433594 28.785156 " fill-opacity="1" fill-rule="evenodd"/><path fill="#b5d5f5" d="M 24.753906 19.210938 C 24.109375 19.550781 23.480469 19.914062 22.871094 20.304688 L 25.574219 25.007812 C 25.871094 25.527344 26.539062 25.707031 27.058594 25.402344 C 27.578125 25.101562 27.753906 24.433594 27.453125 23.910156 Z M 24.753906 19.210938 " fill-opacity="1" fill-rule="evenodd"/><path fill="#ef5350" d="M 64.480469 44.445312 C 64.496094 44.082031 64.503906 43.714844 64.503906 43.347656 C 64.503906 42.980469 64.496094 42.617188 64.480469 42.25 L 56.027344 42.25 C 55.421875 42.25 54.933594 42.742188 54.933594 43.347656 C 54.933594 43.953125 55.421875 44.445312 56.027344 44.445312 Z M 64.480469 44.445312 " fill-opacity="1" fill-rule="evenodd"/><path fill="#ef5350" d="M 36.277344 70.582031 C 36.640625 70.59375 37.003906 70.601562 37.371094 70.601562 C 37.734375 70.601562 38.101562 70.597656 38.460938 70.582031 L 38.460938 62.085938 C 38.460938 61.480469 37.972656 60.988281 37.371094 60.988281 C 36.765625 60.988281 36.277344 61.480469 36.277344 62.085938 Z M 36.277344 70.582031 " fill-opacity="1" fill-rule="evenodd"/><path fill="#ef5350" d="M 10.257812 42.25 C 10.242188 42.617188 10.234375 42.980469 10.234375 43.347656 C 10.234375 43.714844 10.242188 44.082031 10.257812 44.445312 L 18.710938 44.445312 C 19.316406 44.445312 19.804688 43.953125 19.804688 43.347656 C 19.804688 42.742188 19.316406 42.25 18.710938 42.25 Z M 10.257812 42.25 " fill-opacity="1" fill-rule="evenodd"/><path fill="#ef5350" d="M 38.460938 16.117188 C 38.101562 16.101562 37.734375 16.089844 37.371094 16.089844 C 37.003906 16.089844 36.640625 16.097656 36.277344 16.117188 L 36.277344 24.609375 C 36.277344 25.214844 36.765625 25.703125 37.371094 25.703125 C 37.972656 25.703125 38.460938 25.214844 38.460938 24.609375 Z M 38.460938 16.117188 " fill-opacity="1" fill-rule="evenodd"/><path fill="#3b566a" d="M 37.371094 46.113281 C 38.886719 46.113281 40.121094 44.871094 40.121094 43.34375 C 40.121094 41.824219 38.886719 40.582031 37.371094 40.582031 C 35.851562 40.582031 34.617188 41.820312 34.617188 43.34375 C 34.617188 44.871094 35.851562 46.113281 37.371094 46.113281 Z M 37.371094 46.113281 " fill-opacity="1" fill-rule="evenodd"/><path fill="#58a339" d="M 37.371094 21.882812 C 31.457031 21.882812 26.105469 27.125 26.085938 27.140625 C 25.769531 27.449219 25.257812 27.4375 24.949219 27.117188 C 24.753906 26.910156 24.6875 26.632812 24.746094 26.375 L 26.894531 17.089844 L 19.707031 17.964844 C 19.265625 18.015625 18.863281 17.699219 18.8125 17.253906 C 18.78125 16.96875 18.894531 16.703125 19.101562 16.535156 C 23.996094 12.0625 30.332031 9.871094 32.683594 9.171875 L 29.011719 1.136719 C 28.824219 0.730469 29.003906 0.25 29.410156 0.0664062 C 29.515625 0.015625 29.628906 -0.0078125 29.746094 -0.0078125 L 29.746094 -0.0117188 L 36.867188 -0.0117188 C 37.21875 -0.0117188 37.519531 0.214844 37.628906 0.527344 L 41.503906 9.011719 C 43.210938 9.480469 50.3125 11.648438 55.671875 16.558594 C 56.003906 16.863281 56.023438 17.375 55.722656 17.703125 C 55.542969 17.90625 55.285156 17.992188 55.03125 17.960938 L 47.847656 17.089844 L 49.996094 26.371094 C 50.09375 26.808594 49.824219 27.242188 49.386719 27.34375 C 49.105469 27.410156 48.820312 27.3125 48.628906 27.117188 C 48.273438 26.777344 43.082031 21.882812 37.371094 21.882812 Z M 37.371094 21.882812 " fill-opacity="1" fill-rule="evenodd"/><path fill="#ffffff" d="M 32.597656 17.332031 C 32.21875 17.574219 31.722656 17.464844 31.484375 17.089844 C 31.242188 16.710938 31.351562 16.214844 31.726562 15.972656 C 33.667969 14.71875 35.511719 14.089844 37.371094 14.089844 C 39.230469 14.089844 41.074219 14.71875 43.019531 15.972656 C 43.390625 16.214844 43.5 16.710938 43.261719 17.089844 C 43.019531 17.464844 42.519531 17.574219 42.148438 17.332031 C 40.472656 16.257812 38.914062 15.714844 37.375 15.714844 C 35.832031 15.714844 34.269531 16.253906 32.597656 17.332031 Z M 32.597656 17.332031 " fill-opacity="1" fill-rule="nonzero"/></svg>