<svg xmlns="http://www.w3.org/2000/svg" xmlns:xlink="http://www.w3.org/1999/xlink" width="100" zoomAndPan="magnify" viewBox="0 0 75 74.999997" height="100" preserveAspectRatio="xMidYMid meet" version="1.0"><defs><clipPath id="03fffe4d01"><path d="M 2.71875 26 L 72.46875 26 L 72.46875 49 L 2.71875 49 Z M 2.71875 26 " clip-rule="nonzero"/></clipPath></defs><path fill="#a65a47" d="M 33.601562 68.269531 C 33.820312 69.75 33.757812 71.464844 33.113281 73.304688 C 32.816406 74.128906 33.484375 74.992188 34.363281 74.992188 L 40.824219 74.992188 C 41.703125 74.992188 42.371094 74.128906 42.074219 73.304688 C 41.429688 71.464844 41.367188 69.75 41.585938 68.269531 Z M 33.601562 68.269531 " fill-opacity="1" fill-rule="nonzero"/><g clip-path="url(#03fffe4d01)"><path fill="#a65a47" d="M 57.007812 45.507812 C 58.46875 46.644531 60.945312 48.226562 63.425781 48.226562 C 67.300781 48.226562 72.46875 41.785156 72.46875 36.632812 C 72.46875 31.480469 69.886719 26.328125 64.71875 26.328125 C 59.550781 26.328125 56.96875 28.90625 56.96875 28.90625 L 37.59375 45.363281 L 18.21875 28.90625 C 18.21875 28.90625 15.636719 26.328125 10.46875 26.328125 C 5.300781 26.328125 2.71875 31.480469 2.71875 36.632812 C 2.71875 41.785156 7.886719 48.226562 11.761719 48.226562 C 14.242188 48.226562 16.71875 46.644531 18.179688 45.507812 Z M 57.007812 45.507812 " fill-opacity="1" fill-rule="nonzero"/></g><path fill="#a65a47" d="M 18.671875 28.179688 L 18.671875 28.167969 C 16.980469 23.621094 17.546875 15.542969 23.5 11.214844 C 23.734375 11.046875 23.953125 10.855469 24.148438 10.648438 C 26.136719 8.378906 31.832031 2.457031 38.640625 0.34375 C 39.671875 0.0195312 40.589844 1.0625 40.203125 2.09375 C 40.113281 2.339844 40.035156 2.597656 39.957031 2.867188 C 39.351562 5.160156 41.84375 7.027344 43.820312 5.765625 C 44.957031 5.042969 46.441406 4.296875 48.160156 3.910156 C 49.101562 3.703125 49.957031 4.632812 49.683594 5.574219 C 49.503906 6.164062 49.375 6.847656 49.359375 7.609375 C 49.335938 8.933594 50.070312 10.132812 51.15625 10.855469 C 57.265625 14.875 57.253906 22.550781 56.347656 27.304688 L 56.347656 27.316406 Z M 18.671875 28.179688 " fill-opacity="1" fill-rule="nonzero"/><path fill="#f9c795" d="M 55.328125 43.203125 C 56.179688 41.117188 56.96875 38.113281 56.96875 34.058594 C 56.96875 32.085938 56.851562 30.398438 56.644531 28.941406 C 55.910156 23.75 53.972656 21.523438 51.800781 19.886719 C 51.800781 19.886719 45.125 14.339844 39.003906 18.691406 C 38.167969 19.28125 37.015625 19.28125 36.183594 18.691406 C 30.0625 14.339844 23.382812 19.886719 23.382812 19.886719 C 21.214844 21.523438 19.277344 23.75 18.539062 28.941406 C 18.332031 30.398438 18.21875 32.085938 18.21875 34.058594 C 18.21875 38.113281 19.003906 41.117188 19.859375 43.203125 Z M 55.328125 43.203125 " fill-opacity="1" fill-rule="nonzero"/><path fill="#fdd7ad" d="M 50.433594 60.75 C 55.199219 58.289062 58.261719 54.460938 58.261719 50.160156 C 58.261719 44.75 53.417969 40.085938 46.414062 37.933594 L 28.773438 37.933594 C 21.769531 40.085938 16.925781 44.75 16.925781 50.160156 C 16.925781 54.460938 19.988281 58.289062 24.753906 60.75 Z M 50.433594 60.75 " fill-opacity="1" fill-rule="nonzero"/><path fill="#35495e" d="M 33.71875 31.195312 C 33.003906 31.195312 32.425781 30.617188 32.425781 29.90625 C 32.425781 29.195312 31.847656 28.617188 31.136719 28.617188 C 30.421875 28.617188 29.84375 29.195312 29.84375 29.90625 C 29.84375 30.617188 29.265625 31.195312 28.550781 31.195312 C 27.839844 31.195312 27.261719 30.617188 27.261719 29.90625 C 27.261719 27.777344 29 26.042969 31.136719 26.042969 C 33.273438 26.042969 35.011719 27.777344 35.011719 29.90625 C 35.011719 30.617188 34.433594 31.195312 33.71875 31.195312 Z M 33.71875 31.195312 " fill-opacity="1" fill-rule="nonzero"/><path fill="#35495e" d="M 46.636719 31.195312 C 45.921875 31.195312 45.34375 30.617188 45.34375 29.90625 C 45.34375 29.195312 44.765625 28.617188 44.050781 28.617188 C 43.339844 28.617188 42.761719 29.195312 42.761719 29.90625 C 42.761719 30.617188 42.183594 31.195312 41.46875 31.195312 C 40.753906 31.195312 40.175781 30.617188 40.175781 29.90625 C 40.175781 27.777344 41.914062 26.042969 44.050781 26.042969 C 46.1875 26.042969 47.925781 27.777344 47.925781 29.90625 C 47.925781 30.617188 47.351562 31.195312 46.636719 31.195312 Z M 46.636719 31.195312 " fill-opacity="1" fill-rule="nonzero"/><path fill="#f09372" d="M 42.238281 42.789062 C 42.582031 42.789062 42.929688 42.726562 43.246094 42.589844 C 45.320312 41.683594 46.636719 40.289062 46.636719 38.726562 C 46.636719 35.988281 42.59375 33.769531 37.59375 33.769531 C 32.59375 33.769531 28.550781 35.988281 28.550781 38.726562 C 28.550781 40.289062 29.867188 41.6875 31.941406 42.589844 C 32.257812 42.726562 32.605469 42.789062 32.949219 42.789062 Z M 42.238281 42.789062 " fill-opacity="1" fill-rule="nonzero"/><path fill="#ff5364" d="M 51.800781 54.667969 C 51.800781 55.597656 51.710938 56.519531 51.527344 57.433594 C 51.347656 58.34375 51.078125 59.230469 50.71875 60.089844 C 50.363281 60.949219 49.925781 61.765625 49.40625 62.539062 C 48.890625 63.316406 48.300781 64.03125 47.640625 64.6875 C 46.980469 65.347656 46.261719 65.933594 45.488281 66.449219 C 44.710938 66.96875 43.894531 67.402344 43.03125 67.761719 C 42.167969 68.117188 41.28125 68.386719 40.367188 68.566406 C 39.449219 68.746094 38.527344 68.839844 37.59375 68.839844 C 36.660156 68.839844 35.738281 68.746094 34.820312 68.566406 C 33.90625 68.386719 33.019531 68.117188 32.15625 67.761719 C 31.292969 67.402344 30.476562 66.96875 29.699219 66.449219 C 28.925781 65.933594 28.207031 65.347656 27.546875 64.6875 C 26.886719 64.03125 26.296875 63.316406 25.78125 62.539062 C 25.261719 61.765625 24.824219 60.949219 24.46875 60.089844 C 24.109375 59.230469 23.839844 58.34375 23.660156 57.433594 C 23.476562 56.519531 23.386719 55.597656 23.386719 54.667969 C 23.386719 53.738281 23.476562 52.816406 23.660156 51.902344 C 23.839844 50.992188 24.109375 50.105469 24.46875 49.246094 C 24.824219 48.386719 25.261719 47.570312 25.78125 46.796875 C 26.296875 46.023438 26.886719 45.304688 27.546875 44.648438 C 28.207031 43.992188 28.925781 43.402344 29.699219 42.886719 C 30.476562 42.371094 31.292969 41.933594 32.15625 41.578125 C 33.019531 41.222656 33.90625 40.953125 34.820312 40.769531 C 35.738281 40.589844 36.660156 40.5 37.59375 40.5 C 38.527344 40.5 39.449219 40.589844 40.367188 40.769531 C 41.28125 40.953125 42.167969 41.222656 43.03125 41.578125 C 43.894531 41.933594 44.710938 42.371094 45.488281 42.886719 C 46.261719 43.402344 46.980469 43.992188 47.640625 44.648438 C 48.300781 45.304688 48.890625 46.023438 49.40625 46.796875 C 49.925781 47.570312 50.363281 48.386719 50.71875 49.246094 C 51.078125 50.105469 51.347656 50.992188 51.527344 51.902344 C 51.710938 52.816406 51.800781 53.738281 51.800781 54.667969 Z M 51.800781 54.667969 " fill-opacity="1" fill-rule="nonzero"/><path fill="#fb7b76" d="M 31.621094 46.128906 C 30.726562 46.839844 29.519531 48.050781 28.730469 49.855469 C 28.160156 51.164062 29.023438 52.65625 30.441406 52.832031 L 31.242188 52.933594 C 32.269531 53.0625 33.226562 52.4375 33.554688 51.457031 C 33.800781 50.722656 34.179688 49.839844 34.757812 48.976562 C 35.480469 47.890625 35.082031 46.421875 33.902344 45.859375 C 33.152344 45.5 32.273438 45.609375 31.625 46.125 Z M 31.621094 46.128906 " fill-opacity="1" fill-rule="nonzero"/><path fill="#fdd7ad" d="M 16.367188 36.949219 C 16.359375 38.484375 15.867188 40.019531 14.921875 41.085938 C 14.589844 41.460938 14.207031 41.792969 13.789062 42.074219 C 12.804688 42.730469 11.570312 42.832031 10.683594 41.941406 C 8.339844 39.59375 7.0625 36.160156 8.507812 32.988281 C 9.03125 31.847656 9.917969 31.179688 11.199219 31.195312 C 12.382812 31.210938 13.613281 31.71875 14.515625 32.472656 C 15.773438 33.527344 16.375 35.238281 16.367188 36.949219 Z M 16.367188 36.949219 " fill-opacity="1" fill-rule="nonzero"/><path fill="#fdd7ad" d="M 60.671875 32.472656 C 61.574219 31.714844 62.804688 31.210938 63.988281 31.195312 C 65.269531 31.179688 66.15625 31.847656 66.679688 32.988281 C 68.125 36.160156 66.847656 39.59375 64.503906 41.941406 C 63.617188 42.828125 62.382812 42.730469 61.398438 42.070312 C 60.980469 41.792969 60.597656 41.460938 60.265625 41.085938 C 59.320312 40.015625 58.828125 38.480469 58.820312 36.949219 C 58.8125 35.234375 59.414062 33.523438 60.671875 32.46875 Z M 60.671875 32.472656 " fill-opacity="1" fill-rule="nonzero"/></svg>